@startuml
class Joueur{ 
    + pseudo: string
    + victoires: integer    
    + enregistrer_victoire(): None
    + to_dict(): string
    + from_dict(): Joueur
}
class Match{
    + joueur1: Joueur
    + joueur2: Joueur
    + score1: integer
    + score2: integer
    + definir_scores(): None
    + gagnant(): integer
}
class Tournoi{
    + nom: string 
    + joueurs: list
    + Match: list
    + charger_joueurs(): None
    + charger_matchs(): None
    + saisir_scores(): None
    + afficher_classement():
    + sauvegarder(): 
    + generer_rapport():
}
Joueur "0..*" --* "1" Tournoi
Match "0..*" --* "1" Tournoi
Joueur "2" --* "1" Match
@enduml